# xmcd
#
# Track frame offsets:
#	150
#	13792
#	34837
#	53262
#	70985
#	89407
#	98529
#	120242
#	134740
#	146910
#	162150
#	178662
#	201472
#	217045
#
# Disc length: 3085 seconds
#
# Revision: 0
# Processed by: cddbd v1.5.2PL0 Copyright (c) Steve Scherf et al.
# Submitted via: dBpowerAMP V4.0
#
DISCID=ca0c0b0e
DTITLE=Ralph Bassinger - Waiting For My Train
DYEAR=2007
DGENRE=blues
TTITLE0=Tribute To Otis
TTITLE1=Maybe On Another Day
TTITLE2=Waiting For My Train
TTITLE3=Red Knows
TTITLE4=That's Alright
TTITLE5=Thinking Of Elmore
TTITLE6=Learning To Love The Blues
TTITLE7=SAlina Shuffle
TTITLE8=Mississippi Mind
TTITLE9=Reconsider Baby
TTITLE10=Circle Boogie
TTITLE11=Taking Jimmy Home
TTITLE12=Barrel Bt The Door
TTITLE13=Angela Marie
EXTD=
EXTT0=
EXTT1=
EXTT2=
EXTT3=
EXTT4=
EXTT5=
EXTT6=
EXTT7=
EXTT8=
EXTT9=
EXTT10=
EXTT11=
EXTT12=
EXTT13=
PLAYORDER=
